<svg xmlns="http://www.w3.org/2000/svg" width="64" height="52" viewBox="0 0 64 52">
  <path fill="none" stroke="#4C4C4B" stroke-linecap="round" stroke-linejoin="round" d="M61.9308,42.7506 L55.8768,43.6016 L47.4308,28.5806 L46.3228,26.6076 L46.3068,26.5806 L46.2688,26.5126 L46.1418,26.2856 L46.1168,26.2416 L46.1088,26.2286 L46.0628,26.1466 L45.8578,25.7806 L44.5808,23.5116 L44.3588,23.1156 L44.1368,22.7206 L43.5388,21.6596 C43.5298,21.6406 43.5158,21.6236 43.4998,21.6086 C43.4928,21.6016 43.4838,21.5956 43.4748,21.5896 C43.4668,21.5836 43.4598,21.5766 43.4518,21.5726 L43.4458,21.5686 L43.4448,21.5686 C43.4058,21.5486 43.3608,21.5416 43.3148,21.5476 L43.2178,21.5616 C43.1658,21.5686 43.1218,21.5936 43.0888,21.6286 C43.0508,21.6686 43.0258,21.7226 43.0258,21.7816 L43.0258,21.8486 L43.0018,34.6296 L43.0008,35.0826 L42.9998,35.5366 L42.9828,45.4136 L36.9368,46.2636 L36.9768,24.8226 L36.9778,24.3696 L36.9788,23.9156 L36.9888,18.5636 L36.9888,18.3106 L36.9898,18.0566 L37.0028,10.3786 L42.2608,9.6406 L43.1518,9.5146 L44.1578,11.3276 L44.3798,11.7276 L44.6018,12.1276 L54.9188,30.7106 L55.1208,31.0746 L55.1738,31.1696 L55.3238,31.4376 L55.3438,31.4766 C55.3668,31.5156 55.3988,31.5456 55.4368,31.5646 C55.4418,31.5676 55.4468,31.5686 55.4518,31.5706 C55.4658,31.5766 55.4798,31.5816 55.4938,31.5856 C55.5008,31.5866 55.5088,31.5866 55.5158,31.5876 C55.5238,31.5886 55.5318,31.5906 55.5388,31.5906 C55.5488,31.5906 55.5598,31.5906 55.5698,31.5886 L55.6658,31.5746 C55.6698,31.5746 55.6738,31.5716 55.6778,31.5716 C55.6918,31.5686 55.7048,31.5636 55.7178,31.5596 C55.7248,31.5566 55.7318,31.5546 55.7388,31.5516 C55.7408,31.5496 55.7438,31.5486 55.7448,31.5476 C55.7458,31.5466 55.7478,31.5466 55.7488,31.5456 C55.7598,31.5396 55.7688,31.5316 55.7778,31.5236 L55.7918,31.5126 C55.7948,31.5096 55.7968,31.5066 55.7998,31.5036 C55.8028,31.4996 55.8058,31.4946 55.8098,31.4906 C55.8168,31.4806 55.8248,31.4726 55.8298,31.4626 L55.8358,31.4476 C55.8358,31.4466 55.8368,31.4446 55.8378,31.4436 C55.8398,31.4376 55.8428,31.4316 55.8448,31.4256 C55.8478,31.4176 55.8508,31.4096 55.8518,31.4016 C55.8528,31.3986 55.8548,31.3966 55.8548,31.3946 C55.8558,31.3896 55.8548,31.3836 55.8558,31.3786 C55.8558,31.3706 55.8588,31.3626 55.8588,31.3546 L55.9028,7.7226 L61.9968,6.8666 L61.9308,42.7506 Z M44.6388,37.5416 L43.4468,35.4196 L43.4708,22.4456 L44.1348,23.6276 L44.3578,24.0226 L44.5788,24.4186 L45.1198,25.3796 L45.3258,25.7456 L45.3788,25.8406 L45.5318,26.1116 L45.5848,26.2066 L54.0768,41.3086 L55.1828,43.2766 L44.6388,37.5416 Z M30.4738,6.5006 L26.1998,4.1756 L31.9498,3.3676 L42.5728,9.1466 L37.5518,9.8516 L36.8228,9.9546 L30.4738,6.5006 Z M36.5438,17.8146 L36.5428,18.0676 L36.5428,18.3216 L36.5338,23.1256 L36.5338,23.5786 L36.5328,24.0326 L36.5308,24.9386 L36.4918,46.1456 L32.3718,43.9036 L32.3778,40.6746 C32.3778,40.6706 32.3758,40.6666 32.3758,40.6626 C32.3748,40.6376 32.3688,40.6136 32.3608,40.5906 C32.3598,40.5876 32.3588,40.5836 32.3578,40.5796 C32.3458,40.5546 32.3278,40.5326 32.3078,40.5136 C32.3048,40.5106 32.3048,40.5076 32.3018,40.5056 C32.2978,40.5026 32.2918,40.5016 32.2878,40.4976 C32.2798,40.4916 32.2718,40.4826 32.2618,40.4786 L25.6618,36.8876 L25.7228,4.4236 L36.5578,10.3176 L36.5438,17.8146 Z M31.9268,43.6616 L31.9268,43.9156 L31.9258,44.1696 L31.9208,46.9686 L11.9768,49.7716 L11.9958,39.4756 L11.9968,39.2216 L11.9968,38.9686 L12.0028,36.0106 L12.0028,36.0096 L12.0028,35.7836 L12.0038,35.5596 L12.0438,13.8866 L18.0888,13.0376 L18.0488,34.7096 L18.0488,34.9346 L18.0478,35.1596 L18.0348,42.2526 L18.0348,42.5066 L18.0338,42.6266 C18.0338,42.6906 18.0618,42.7526 18.1108,42.7956 C18.1328,42.8136 18.1578,42.8266 18.1838,42.8366 C18.1888,42.8376 18.1928,42.8406 18.1978,42.8416 C18.2168,42.8466 18.2368,42.8506 18.2568,42.8506 C18.2668,42.8506 18.2778,42.8496 18.2878,42.8486 L27.1968,41.5966 L27.5668,41.5436 L27.9378,41.4916 L31.9318,40.9306 L31.9268,43.6616 Z M5.3308,9.9086 L1.2408,7.6836 L6.9898,6.8756 L17.6128,12.6536 L12.8768,13.3196 L11.8628,13.4616 L5.3308,9.9086 Z M11.5708,28.4466 L11.5568,35.6216 L11.5568,35.8476 L11.5568,36.0716 L11.5518,38.7256 L11.5518,38.9796 L11.5508,39.2326 L11.5318,49.6516 L0.6958,43.7586 L0.7628,7.9316 L11.5978,13.8256 L11.5708,28.4466 Z M18.4938,35.0976 L20.8328,34.7686 L25.2158,37.1516 L25.4388,37.2736 L25.6608,37.3956 L31.4558,40.5476 L27.2798,41.1336 L26.9098,41.1866 L26.5388,41.2376 L22.8638,41.7546 L18.4798,42.3706 L18.4938,35.0976 Z M44.6208,1.7676 L55.4558,7.6616 L55.4478,12.6666 L55.4128,30.6826 L44.6038,11.2126 L44.6208,1.7676 Z M50.8988,0.7046 L61.5218,6.4826 L55.7218,7.2976 L49.3728,3.8446 L45.0988,1.5196 L50.8988,0.7046 Z M62.4418,6.5986 C62.4408,6.5736 62.4358,6.5496 62.4258,6.5266 C62.4248,6.5226 62.4238,6.5196 62.4228,6.5156 C62.4108,6.4906 62.3938,6.4686 62.3728,6.4486 C62.3698,6.4466 62.3698,6.4436 62.3678,6.4416 C62.3638,6.4376 62.3578,6.4376 62.3538,6.4336 C62.3448,6.4276 62.3368,6.4186 62.3268,6.4136 L51.0468,0.2776 C51.0048,0.2546 50.9578,0.2456 50.9098,0.2526 L44.3688,1.1716 C44.3638,1.1726 44.3608,1.1746 44.3568,1.1756 C44.3418,1.1786 44.3278,1.1826 44.3158,1.1876 C44.3088,1.1906 44.3008,1.1936 44.2938,1.1966 C44.2908,1.1986 44.2878,1.1996 44.2848,1.2006 C44.2748,1.2076 44.2658,1.2156 44.2568,1.2236 C44.2518,1.2276 44.2468,1.2296 44.2428,1.2346 C44.2278,1.2496 44.2148,1.2656 44.2038,1.2846 C44.2018,1.2886 44.2018,1.2936 44.1998,1.2986 C44.1918,1.3126 44.1868,1.3286 44.1828,1.3446 C44.1818,1.3476 44.1798,1.3496 44.1798,1.3526 C44.1788,1.3576 44.1798,1.3626 44.1798,1.3686 C44.1788,1.3756 44.1758,1.3836 44.1758,1.3926 L44.1598,10.4126 L43.4668,9.1646 C43.4618,9.1556 43.4548,9.1486 43.4488,9.1416 C43.4428,9.1326 43.4368,9.1236 43.4298,9.1166 C43.4188,9.1056 43.4068,9.0976 43.3938,9.0886 C43.3878,9.0846 43.3838,9.0806 43.3788,9.0766 L43.3718,9.0736 L43.3708,9.0726 L32.0978,2.9406 C32.0568,2.9176 32.0078,2.9086 31.9608,2.9156 L25.4698,3.8276 C25.4648,3.8286 25.4618,3.8306 25.4578,3.8316 C25.4438,3.8336 25.4298,3.8386 25.4168,3.8436 C25.4098,3.8466 25.4028,3.8496 25.3958,3.8536 C25.3928,3.8546 25.3888,3.8546 25.3868,3.8566 C25.3758,3.8636 25.3668,3.8716 25.3578,3.8796 C25.3528,3.8836 25.3478,3.8866 25.3438,3.8906 C25.3288,3.9046 25.3158,3.9216 25.3058,3.9406 C25.3038,3.9446 25.3018,3.9496 25.2998,3.9546 C25.2928,3.9686 25.2868,3.9846 25.2838,4.0006 C25.2828,4.0036 25.2818,4.0056 25.2808,4.0086 C25.2798,4.0136 25.2808,4.0196 25.2808,4.0246 C25.2798,4.0326 25.2778,4.0406 25.2778,4.0476 L25.2168,36.6456 L20.9818,34.3416 C20.9398,34.3186 20.8918,34.3096 20.8438,34.3166 L18.4948,34.6466 L18.5348,12.7816 C18.5348,12.7766 18.5328,12.7736 18.5328,12.7696 C18.5318,12.7446 18.5268,12.7206 18.5168,12.6976 C18.5158,12.6936 18.5158,12.6896 18.5138,12.6876 C18.5018,12.6616 18.4848,12.6396 18.4638,12.6196 C18.4618,12.6176 18.4608,12.6146 18.4588,12.6126 C18.4548,12.6086 18.4498,12.6076 18.4448,12.6046 C18.4358,12.5986 18.4288,12.5906 18.4188,12.5846 L7.1388,6.4486 C7.0968,6.4256 7.0478,6.4166 7.0008,6.4236 L0.5098,7.3356 C0.5058,7.3366 0.5018,7.3386 0.4978,7.3386 C0.4838,7.3416 0.4698,7.3466 0.4558,7.3526 C0.4498,7.3546 0.4428,7.3576 0.4358,7.3606 C0.4328,7.3626 0.4298,7.3626 0.4268,7.3646 C0.4158,7.3716 0.4078,7.3796 0.3978,7.3876 C0.3928,7.3916 0.3888,7.3946 0.3838,7.3976 C0.3688,7.4136 0.3558,7.4296 0.3458,7.4486 C0.3438,7.4526 0.3428,7.4576 0.3398,7.4616 C0.3328,7.4776 0.3268,7.4926 0.3238,7.5086 C0.3238,7.5116 0.3218,7.5136 0.3208,7.5166 C0.3198,7.5216 0.3218,7.5266 0.3208,7.5326 C0.3198,7.5406 0.3178,7.5476 0.3178,7.5566 L0.2498,43.8906 C0.2498,43.9726 0.2948,44.0476 0.3668,44.0866 L11.6468,50.2236 C11.6538,50.2266 11.6598,50.2286 11.6668,50.2306 C11.6728,50.2326 11.6788,50.2356 11.6838,50.2376 C11.7068,50.2446 11.7298,50.2496 11.7538,50.2496 C11.7638,50.2496 11.7748,50.2496 11.7848,50.2476 L32.1748,47.3826 C32.2848,47.3666 32.3668,47.2726 32.3668,47.1616 L32.3708,44.4116 L36.6068,46.7156 C36.6138,46.7186 36.6198,46.7206 36.6258,46.7236 C36.6318,46.7256 36.6378,46.7286 36.6438,46.7296 C36.6658,46.7366 36.6898,46.7426 36.7128,46.7426 C36.7238,46.7426 36.7338,46.7416 36.7438,46.7396 L43.2358,45.8276 C43.3458,45.8126 43.4268,45.7186 43.4278,45.6066 L43.4448,36.3266 L44.2818,37.8156 C44.3028,37.8526 44.3328,37.8826 44.3698,37.9016 L55.6508,44.0386 C55.6518,44.0396 55.6538,44.0396 55.6558,44.0406 C55.6608,44.0436 55.6678,44.0456 55.6738,44.0486 C55.6868,44.0536 55.6998,44.0576 55.7118,44.0606 C55.7198,44.0626 55.7288,44.0626 55.7368,44.0626 C55.7438,44.0636 55.7498,44.0656 55.7568,44.0656 C55.7608,44.0656 55.7648,44.0636 55.7688,44.0626 C55.7758,44.0626 55.7818,44.0646 55.7878,44.0636 L62.1848,43.1646 C62.2938,43.1486 62.3758,43.0556 62.3758,42.9446 L62.4438,6.6096 C62.4438,6.6056 62.4418,6.6026 62.4418,6.5986 Z" transform="translate(1 1)"/>
</svg>
